<?xml version="1.0" encoding="UTF-8"?>
<svg id="Camada_2" data-name="Camada 2" xmlns="http://www.w3.org/2000/svg" viewBox="0 0 105.69 132.27">
  <defs>
    <style>
      .cls-1 {
        fill: #093;
      }

      .cls-1, .cls-2 {
        fill-rule: evenodd;
      }
    </style>
  </defs>
  <g id="Logomarca">
    <g id="icon_preto_verde" data-name="icon preto verde">
      <path class="cls-1" d="M91.07,0c1.02,18.34-4.93,23.2-34.28,34.83-.66-19.25,5.48-22.7,34.28-34.83Z"/>
      <path class="cls-1" d="M14.63,0c-1.02,18.34,4.93,23.2,34.28,34.83C49.57,15.58,43.43,12.13,14.63,0Z"/>
      <path class="cls-2" d="M26.13,39.17v2.67l6.38,2.69v-2.67l-6.38-2.69h0ZM26.13,48.3v5.37l22.83,9.61v15.37l-22.83-9.61v5.37l22.83,9.62v15.37l-21.31-8.98c3.69,9.87,13.7,17.07,25.27,17.07s21.46-7.19,25.14-17.07l-21.31,8.98v-15.37l22.83-9.62v-5.37l-22.83,9.61v-15.37l22.83-9.61v-5.37l-22.83,9.61v-15.37c16.32-6.87,32.63-13.74,48.95-20.62v60.16c0,27.53-23.75,50.18-52.78,50.18S0,109.61,0,82.08V22.02c16.43,6.92,32.54,13.6,48.95,20.51v15.37l-22.83-9.61h0ZM26.13,59.92v2.67l6.38,2.69v-2.67l-6.38-2.69h0ZM26.13,80.66v1.42c0,.42.01.84.03,1.26l6.34,2.67v-2.67l-6.38-2.69h0ZM79.57,41.84v-2.67l-6.38,2.69v2.67l6.38-2.69h0ZM79.57,62.59v-2.67l-6.38,2.69v2.67l6.38-2.69h0ZM79.53,83.35c.02-.42.03-.84.03-1.26v-1.42l-6.38,2.69v2.67l6.34-2.67Z"/>
    </g>
  </g>
</svg>